<svg xmlns="http://www.w3.org/2000/svg" viewBox="0 0 135.38 19.78"><title>corona_pasje_logo</title><path d="M3.71,15.05A7,7,0,0,1,1,12.47,7.1,7.1,0,0,1,0,8.74,7.1,7.1,0,0,1,1,5,7,7,0,0,1,3.71,2.43,8.07,8.07,0,0,1,7.6,1.5a8.11,8.11,0,0,1,3.29.64A6.65,6.65,0,0,1,13.36,4L11.28,5.9A4.49,4.49,0,0,0,7.76,4.26a4.67,4.67,0,0,0-2.32.57A4.05,4.05,0,0,0,3.85,6.42a4.67,4.67,0,0,0-.57,2.32,4.67,4.67,0,0,0,.57,2.32,4.05,4.05,0,0,0,1.59,1.59,4.67,4.67,0,0,0,2.32.57,4.45,4.45,0,0,0,3.52-1.66l2.08,1.92a6.55,6.55,0,0,1-2.48,1.86,8.2,8.2,0,0,1-3.3.64A8,8,0,0,1,3.71,15.05Z" fill="#383836"/><path d="M17,15.19a5.28,5.28,0,0,1-2.11-2,5.39,5.39,0,0,1-.76-2.86A5.39,5.39,0,0,1,14.9,7.5a5.28,5.28,0,0,1,2.11-2,6.5,6.5,0,0,1,3-.71,6.43,6.43,0,0,1,3,.71,5.32,5.32,0,0,1,2.1,2A5.39,5.39,0,0,1,26,10.36a5.39,5.39,0,0,1-.76,2.86,5.32,5.32,0,0,1-2.1,2,6.43,6.43,0,0,1-3,.71A6.5,6.5,0,0,1,17,15.19Zm5-2.66a3,3,0,0,0,.77-2.17A3,3,0,0,0,22,8.19a2.59,2.59,0,0,0-2-.81,2.63,2.63,0,0,0-2,.81,3,3,0,0,0-.78,2.17,3,3,0,0,0,.78,2.17,2.63,2.63,0,0,0,2,.81A2.59,2.59,0,0,0,22,12.53Z" fill="#383836"/><path d="M32.53,5.22a5.52,5.52,0,0,1,2.19-.4V7.7l-.7,0a2.87,2.87,0,0,0-2.1.75,3,3,0,0,0-.76,2.25v5.08H28V5h3V6.4A3.49,3.49,0,0,1,32.53,5.22Z" fill="#383836"/><path d="M38.55,15.19a5.28,5.28,0,0,1-2.11-2,5.39,5.39,0,0,1-.76-2.86,5.39,5.39,0,0,1,.76-2.86,5.28,5.28,0,0,1,2.11-2,6.5,6.5,0,0,1,3.05-.71,6.43,6.43,0,0,1,3,.71,5.32,5.32,0,0,1,2.1,2,5.39,5.39,0,0,1,.76,2.86,5.39,5.39,0,0,1-.76,2.86,5.32,5.32,0,0,1-2.1,2,6.43,6.43,0,0,1-3,.71A6.5,6.5,0,0,1,38.55,15.19Zm5-2.66a3,3,0,0,0,.77-2.17,3,3,0,0,0-.77-2.17,2.59,2.59,0,0,0-2-.81,2.63,2.63,0,0,0-2,.81,3,3,0,0,0-.78,2.17,3,3,0,0,0,.78,2.17,2.63,2.63,0,0,0,2,.81A2.59,2.59,0,0,0,43.57,12.53Z" fill="#383836"/><path d="M59.35,6a4.76,4.76,0,0,1,1.23,3.56v6.16H57.46V10.06a2.83,2.83,0,0,0-.56-1.91,2,2,0,0,0-1.62-.63,2.47,2.47,0,0,0-1.88.73,3,3,0,0,0-.7,2.17v5.32H49.58V5h3V6.24a4.22,4.22,0,0,1,1.54-1,5.3,5.3,0,0,1,2-.37A4.43,4.43,0,0,1,59.35,6Z" fill="#383836"/><path d="M71.58,6A4.56,4.56,0,0,1,72.92,9.6v6.14H70V14.4a3.48,3.48,0,0,1-3.28,1.5,5.09,5.09,0,0,1-2.15-.42,3.21,3.21,0,0,1-1.39-1.16,3,3,0,0,1-.48-1.68,2.81,2.81,0,0,1,1.13-2.36,5.78,5.78,0,0,1,3.49-.86H69.8a2,2,0,0,0-.62-1.57,2.7,2.7,0,0,0-1.86-.55,5.43,5.43,0,0,0-1.69.27,4.47,4.47,0,0,0-1.41.73L63.1,6.12a7,7,0,0,1,2.11-1,9.3,9.3,0,0,1,2.53-.34A5.6,5.6,0,0,1,71.58,6Zm-2.66,7.42a2,2,0,0,0,.88-1.09v-1.1H67.66q-1.92,0-1.92,1.26a1.13,1.13,0,0,0,.47.95,2.13,2.13,0,0,0,1.29.35A2.69,2.69,0,0,0,68.92,13.43Z" fill="#383836"/><path d="M90.91,2.36A4.78,4.78,0,0,1,93,4.12a4.88,4.88,0,0,1,.74,2.7A4.89,4.89,0,0,1,93,9.51a4.71,4.71,0,0,1-2.11,1.76,7.82,7.82,0,0,1-3.23.61H84.86v3.86H81.62v-14h6.06A7.82,7.82,0,0,1,90.91,2.36ZM89.72,8.61a2.19,2.19,0,0,0,.76-1.79A2.2,2.2,0,0,0,89.72,5a3.42,3.42,0,0,0-2.22-.63H84.86V9.24H87.5A3.42,3.42,0,0,0,89.72,8.61Z" fill="#2d2e82"/><path d="M103.92,6a4.56,4.56,0,0,1,1.34,3.59v6.14h-2.92V14.4a3.48,3.48,0,0,1-3.28,1.5,5.09,5.09,0,0,1-2.15-.42,3.21,3.21,0,0,1-1.39-1.16A3,3,0,0,1,95,12.64a2.81,2.81,0,0,1,1.13-2.36,5.76,5.76,0,0,1,3.49-.86h2.48a2,2,0,0,0-.62-1.57,2.7,2.7,0,0,0-1.86-.55A5.38,5.38,0,0,0,98,7.57a4.47,4.47,0,0,0-1.41.73L95.44,6.12a7,7,0,0,1,2.11-1,9.3,9.3,0,0,1,2.53-.34A5.6,5.6,0,0,1,103.92,6Zm-2.66,7.42a2,2,0,0,0,.88-1.09v-1.1H100q-1.92,0-1.92,1.26a1.13,1.13,0,0,0,.47.95,2.13,2.13,0,0,0,1.29.35A2.69,2.69,0,0,0,101.26,13.43Z" fill="#2d2e82"/><path d="M109.08,15.57a6.9,6.9,0,0,1-2-.83l1-2.24a6.34,6.34,0,0,0,1.74.75,7.44,7.44,0,0,0,2,.29c1.32,0,2-.33,2-1a.69.69,0,0,0-.54-.66,8,8,0,0,0-1.66-.34,15.9,15.9,0,0,1-2.18-.46,3.37,3.37,0,0,1-1.49-.92,2.62,2.62,0,0,1-.63-1.88,3,3,0,0,1,.59-1.81,3.75,3.75,0,0,1,1.72-1.23,7.39,7.39,0,0,1,2.67-.44,10.32,10.32,0,0,1,2.27.25,6.65,6.65,0,0,1,1.87.69l-1,2.22a6.25,6.25,0,0,0-3.1-.8,3.1,3.1,0,0,0-1.5.28.84.84,0,0,0-.5.72.71.71,0,0,0,.54.7,9.79,9.79,0,0,0,1.72.38,18.41,18.41,0,0,1,2.16.47,3.26,3.26,0,0,1,1.46.91,2.59,2.59,0,0,1,.62,1.84,2.83,2.83,0,0,1-.6,1.78,3.84,3.84,0,0,1-1.75,1.21,7.75,7.75,0,0,1-2.73.43A10.45,10.45,0,0,1,109.08,15.57Z" fill="#2d2e82"/><path d="M115.4,19.18l.84-2.26a2.26,2.26,0,0,0,1.32.38,1.19,1.19,0,0,0,.94-.39,1.72,1.72,0,0,0,.34-1.17V5H122V15.72a4.08,4.08,0,0,1-1.07,3,4,4,0,0,1-3,1.09A4.35,4.35,0,0,1,115.4,19.18ZM119,3a1.62,1.62,0,0,1-.54-1.24A1.62,1.62,0,0,1,119,.5a2,2,0,0,1,1.4-.5,2,2,0,0,1,1.4.48,1.54,1.54,0,0,1,.54,1.2A1.7,1.7,0,0,1,121.8,3a2,2,0,0,1-1.4.51A2,2,0,0,1,119,3Z" fill="#2d2e82"/><path d="M135.32,11.24h-8.14a2.54,2.54,0,0,0,1,1.58,3.41,3.41,0,0,0,2,.58,4,4,0,0,0,1.49-.25,3.76,3.76,0,0,0,1.21-.79l1.66,1.8a5.57,5.57,0,0,1-4.44,1.74,7,7,0,0,1-3.22-.71,5.16,5.16,0,0,1-2.16-2,5.39,5.39,0,0,1-.76-2.86,5.52,5.52,0,0,1,.75-2.85,5.17,5.17,0,0,1,2.06-2,6.38,6.38,0,0,1,5.79,0,5,5,0,0,1,2,2,5.89,5.89,0,0,1,.73,3S135.36,10.72,135.32,11.24ZM128,7.78a2.58,2.58,0,0,0-.88,1.64h5.3a2.56,2.56,0,0,0-2.64-2.24A2.68,2.68,0,0,0,128,7.78Z" fill="#2d2e82"/></svg>