<?xml version="1.0" standalone="no"?>
<!DOCTYPE svg PUBLIC "-//W3C//DTD SVG 20010904//EN"
 "http://www.w3.org/TR/2001/REC-SVG-20010904/DTD/svg10.dtd">
<svg version="1.0" xmlns="http://www.w3.org/2000/svg"
 width="700.000000pt" height="700.000000pt" viewBox="0 0 700.000000 700.000000"
 preserveAspectRatio="xMidYMid meet">
<metadata>
Created by potrace 1.14, written by Peter Selinger 2001-2017
</metadata>
<g transform="translate(0.000000,700.000000) scale(0.100000,-0.100000)"
fill="#000000" stroke="none">
<path d="M660 5392 c-218 -16 -424 -131 -542 -300 -151 -217 -156 -538 -13
-763 129 -202 339 -315 597 -323 216 -6 402 60 535 190 l48 46 -60 55 c-33 30
-79 72 -101 93 l-41 39 -38 -40 c-21 -21 -72 -55 -112 -75 -66 -34 -82 -37
-167 -40 -191 -7 -327 68 -401 220 -80 163 -62 350 47 488 70 90 219 152 348
147 105 -5 223 -54 285 -119 16 -16 34 -30 39 -30 6 1 54 41 105 89 l95 89
-59 57 c-87 83 -237 152 -375 171 -47 7 -144 10 -190 6z"/>
<path d="M1800 5064 c-171 -35 -300 -124 -375 -259 -49 -90 -66 -158 -66 -265
1 -256 171 -460 429 -513 313 -65 604 91 685 368 20 72 22 210 2 286 -25 97
-76 184 -145 247 -35 33 -120 88 -150 97 -14 4 -29 11 -35 15 -38 30 -246 44
-345 24z m233 -256 c94 -42 146 -125 152 -244 9 -165 -69 -276 -211 -301 -91
-17 -195 19 -252 87 -32 37 -55 106 -58 177 -7 141 56 246 173 289 52 19 144
15 196 -8z"/>
<path d="M3280 5073 c-114 -13 -199 -48 -262 -106 -21 -19 -38 -32 -39 -28 0
3 0 32 1 64 l1 57 -145 0 -146 0 0 -515 0 -515 28 -1 c60 -1 266 1 268 4 1 1
4 133 6 292 3 289 3 290 29 340 46 90 129 136 250 136 44 1 59 4 60 15 0 8 2
68 2 133 2 129 2 130 -53 124z"/>
<path d="M3832 5054 c-146 -36 -243 -103 -320 -217 -114 -171 -115 -415 -1
-586 105 -158 296 -247 507 -236 105 5 124 9 208 40 79 30 135 68 194 131 95
102 131 192 135 337 5 165 -38 279 -145 388 -141 144 -361 198 -578 143z m279
-252 c93 -43 142 -133 142 -257 0 -101 -27 -169 -89 -224 -54 -48 -114 -65
-199 -59 -144 12 -235 120 -235 279 0 141 75 249 195 280 49 13 137 4 186 -19z"/>
<path d="M5308 5069 c-50 -8 -149 -38 -158 -48 -6 -7 -99 -71 -103 -71 -2 0
-3 24 -2 53 l0 52 -142 3 -143 3 0 -258 c-1 -480 1 -767 5 -771 3 -4 71 -5
232 -3 l62 1 1 283 c1 336 6 372 71 436 43 41 90 61 154 65 104 7 179 -37 212
-123 16 -40 18 -84 18 -353 0 -198 4 -308 10 -309 10 -1 219 0 265 1 l26 0 -2
343 c-1 218 -6 360 -13 391 -52 219 -250 341 -493 305z"/>
<path d="M6447 5074 c-1 -1 -31 -5 -66 -8 -113 -12 -332 -97 -319 -124 2 -4
25 -50 52 -103 l49 -96 53 29 c87 48 145 62 249 61 79 0 131 -14 171 -45 30
-24 63 -91 64 -128 l0 -25 -174 -2 c-115 -2 -198 -8 -241 -18 -173 -40 -266
-143 -265 -294 1 -104 43 -180 132 -241 71 -47 158 -69 270 -66 115 3 187 28
248 86 l50 46 0 -58 c0 -56 1 -58 28 -59 15 0 78 -1 140 -2 l113 -2 -2 343
c-1 371 -6 415 -56 501 -75 130 -211 196 -412 204 -45 2 -83 2 -84 1z m253
-672 c0 -49 -5 -66 -29 -99 -41 -57 -106 -86 -190 -86 -135 0 -208 86 -152
179 29 47 82 61 239 63 l132 2 0 -59z"/>
<path d="M4592 3500 c-79 -18 -136 -87 -135 -164 2 -90 67 -154 166 -163 172
-16 275 178 152 286 -42 36 -121 54 -183 41z"/>
<path d="M920 2666 l0 -673 155 1 155 0 2 185 3 185 175 2 c240 1 306 12 425
70 187 92 281 295 239 515 -37 197 -185 329 -416 373 -47 9 -174 13 -403 14
l-335 1 0 -673z m653 410 c132 -22 206 -116 194 -245 -9 -109 -72 -178 -181
-201 -28 -6 -120 -11 -204 -13 l-152 -2 0 235 0 235 153 -1 c83 -1 169 -4 190
-8z"/>
<path d="M2698 3046 c-1 -2 -37 -6 -79 -9 -90 -7 -155 -21 -229 -48 -55 -20
-140 -66 -140 -75 0 -2 23 -49 51 -104 l51 -99 51 28 c99 55 238 78 339 56 76
-17 132 -78 145 -160 l5 -34 -163 -1 c-185 -1 -208 -3 -300 -30 -142 -42 -219
-140 -219 -279 0 -116 59 -211 162 -263 70 -35 142 -49 243 -47 111 3 185 30
247 89 l48 46 0 -61 0 -62 138 1 137 1 2 332 c2 358 -4 408 -51 501 -61 117
-188 193 -348 208 -35 3 -68 7 -75 9 -6 2 -13 2 -15 1z m192 -673 c0 -112 -78
-183 -210 -189 -136 -6 -216 78 -166 174 28 54 75 67 252 68 l124 1 0 -54z"/>
<path d="M3827 3045 c-1 -2 -31 -5 -66 -9 -179 -16 -327 -114 -362 -239 -19
-64 -13 -162 12 -213 23 -48 86 -105 140 -128 43 -18 140 -43 199 -51 176 -25
246 -49 256 -89 6 -24 -10 -65 -30 -79 -75 -50 -322 -30 -457 39 l-52 26 -18
-23 c-10 -13 -19 -27 -19 -31 0 -3 -16 -39 -35 -80 l-35 -73 22 -15 c40 -28
133 -61 228 -80 113 -23 309 -21 403 4 173 47 275 154 280 294 3 84 -19 147
-67 195 -58 57 -121 83 -281 113 -231 44 -275 62 -275 116 0 31 52 75 101 85
99 21 258 -1 351 -48 l39 -20 40 88 c22 48 44 96 50 105 5 10 9 19 9 22 0 11
-127 56 -205 71 -58 11 -221 25 -228 20z"/>
<path d="M5475 3039 c-228 -22 -412 -178 -469 -399 -20 -75 -14 -217 13 -301
51 -162 189 -285 376 -337 147 -41 366 -21 485 44 64 35 122 83 118 99 -2 7
-36 49 -77 94 l-73 81 -39 -31 c-63 -49 -133 -69 -235 -66 -72 3 -99 8 -139
29 -59 31 -97 66 -119 112 -31 66 -54 62 372 62 l387 0 -1 99 c-1 116 -19 186
-69 271 -103 174 -300 265 -530 243z m188 -251 c68 -34 103 -78 127 -160 l8
-26 -254 0 c-140 0 -254 3 -254 8 0 17 42 105 58 124 27 30 89 66 130 75 54
12 140 2 185 -21z"/>
<path d="M4495 3020 c-2 -3 -4 -242 -4 -531 1 -288 -3 -537 -6 -554 -20 -82
-110 -112 -211 -70 l-31 13 -36 -97 c-20 -53 -38 -102 -39 -110 -5 -26 122
-62 221 -62 47 0 97 2 111 5 105 23 202 91 242 170 46 91 48 109 48 692 l0
552 -145 -1 c-80 0 -148 -3 -150 -7z"/>
</g>
</svg>
